# xmcd
#
# Track frame offsets:
#	150
#	16964
#	29868
#	45844
#	62200
#	75173
#	89633
#	105219
#	122780
#	140842
#	157049
#	170446
#
# Disc length: 2627 seconds
#
# Revision: 2
# Processed by: cddbd v1.5.2PL0 Copyright (c) Steve Scherf et al.
# Submitted via: audiograbber 1.83.01
#
DISCID=980a410c
DTITLE=Apostol - Nehéz a boldogságtól búcsút venni
DYEAR=1998
DGENRE=Beat
TTITLE0=Nehéz a boldogságtól búcsút venni
TTITLE1=Nincs szerencsém a szerelemben
TTITLE2=Ha emlékszem majd néha rád
TTITLE3=Út, ahol már rég nem jártam
TTITLE4=Ma este felmegyek majd hozzád
TTITLE5=Te úgy mentél el
TTITLE6=Homokvár, légvár, kártyavár
TTITLE7=Szívzûr
TTITLE8=Nem tudok élni nélküled
TTITLE9=Boldogság minden ember vágya
TTITLE10=Eladó, kiadó most a szívem 
TTITLE11=Fény az arcon
EXTD=
EXTT0=
EXTT1=
EXTT2=
EXTT3=
EXTT4=
EXTT5=
EXTT6=
EXTT7=
EXTT8=
EXTT9=
EXTT10=
EXTT11=
PLAYORDER=
